<?xml version="1.0" standalone="no"?>
<!DOCTYPE svg PUBLIC "-//W3C//DTD SVG 20010904//EN"
        "http://www.w3.org/TR/2001/REC-SVG-20010904/DTD/svg10.dtd">
<svg version="1.0" xmlns="http://www.w3.org/2000/svg"
     width="120.000000pt" height="120.000000pt" viewBox="0 0 120.000000 120.000000"
     preserveAspectRatio="xMidYMid meet">
    <metadata>
        Created by potrace 1.15, written by Peter Selinger 2001-2017
    </metadata>
    <g transform="translate(0.000000,120.000000) scale(0.100000,-0.100000)" fill="#fcaf17" stroke="none">
        <path d="M0 600 l0 -600 600 0 600 0 0 600 0 600 -600 0 -600 0 0 -600z m677 68 l263 -263 0 -72 0 -73
        -73 0 -72 0 -90 90 c-49 49 -94 90 -100 90 -6 0 -51 -40 -100 -90 l-90 -90 -72 0 -73 0 0 73 0 72 90 90
         c50 49 90 94 90 100 0 6 -40 51 -90 100 l-90 90 0 72 0 73 72 0 73 0 262 -262z m263 172 l0 -91 -87 3
         -88 3 -3 88 -3 87 91 0 90 0 0 -90z"/>
    </g>
</svg>
